<mxfile host="app.diagrams.net" modified="2023-09-06T10:03:43.503Z" agent="Mozilla/5.0 (Windows NT 10.0; Win64; x64) AppleWebKit/537.36 (KHTML, like Gecko) Chrome/114.0.0.0 YaBrowser/23.7.4.971 Yowser/2.5 Safari/537.36" etag="wvMSgnMxHlQAtEeqQGbj" version="21.6.9" type="device">
  <diagram name="Страница — 1" id="fOeqWv1grr2BtNENK1ls">
    <mxGraphModel dx="1055" dy="616" grid="1" gridSize="10" guides="1" tooltips="1" connect="1" arrows="1" fold="1" page="1" pageScale="1" pageWidth="827" pageHeight="1169" math="0" shadow="0">
      <root>
        <mxCell id="0" />
        <mxCell id="1" parent="0" />
        <mxCell id="32oih4IGfr19H81L-pNr-3" style="edgeStyle=orthogonalEdgeStyle;rounded=0;orthogonalLoop=1;jettySize=auto;html=1;exitX=0.5;exitY=1;exitDx=0;exitDy=0;" edge="1" parent="1" source="32oih4IGfr19H81L-pNr-1">
          <mxGeometry relative="1" as="geometry">
            <mxPoint x="390" y="70" as="targetPoint" />
          </mxGeometry>
        </mxCell>
        <mxCell id="32oih4IGfr19H81L-pNr-1" value="Start" style="ellipse;whiteSpace=wrap;html=1;" vertex="1" parent="1">
          <mxGeometry x="330" width="120" height="50" as="geometry" />
        </mxCell>
        <mxCell id="32oih4IGfr19H81L-pNr-5" value="" style="edgeStyle=orthogonalEdgeStyle;rounded=0;orthogonalLoop=1;jettySize=auto;html=1;" edge="1" parent="1" source="32oih4IGfr19H81L-pNr-2" target="32oih4IGfr19H81L-pNr-4">
          <mxGeometry relative="1" as="geometry" />
        </mxCell>
        <mxCell id="32oih4IGfr19H81L-pNr-2" value="stringUserArray" style="shape=parallelogram;perimeter=parallelogramPerimeter;whiteSpace=wrap;html=1;fixedSize=1;" vertex="1" parent="1">
          <mxGeometry x="320" y="70" width="140" height="40" as="geometry" />
        </mxCell>
        <mxCell id="32oih4IGfr19H81L-pNr-8" value="" style="edgeStyle=orthogonalEdgeStyle;rounded=0;orthogonalLoop=1;jettySize=auto;html=1;" edge="1" parent="1" source="32oih4IGfr19H81L-pNr-4" target="32oih4IGfr19H81L-pNr-7">
          <mxGeometry relative="1" as="geometry" />
        </mxCell>
        <mxCell id="32oih4IGfr19H81L-pNr-4" value="newMassLength = 0&lt;br&gt;discounter = 0&lt;br&gt;i = 0" style="whiteSpace=wrap;html=1;" vertex="1" parent="1">
          <mxGeometry x="310" y="130" width="160" height="60" as="geometry" />
        </mxCell>
        <mxCell id="32oih4IGfr19H81L-pNr-10" value="Yes" style="edgeStyle=orthogonalEdgeStyle;rounded=0;orthogonalLoop=1;jettySize=auto;html=1;" edge="1" parent="1" source="32oih4IGfr19H81L-pNr-7" target="32oih4IGfr19H81L-pNr-9">
          <mxGeometry relative="1" as="geometry" />
        </mxCell>
        <mxCell id="32oih4IGfr19H81L-pNr-12" value="No" style="edgeStyle=orthogonalEdgeStyle;rounded=0;orthogonalLoop=1;jettySize=auto;html=1;" edge="1" parent="1" source="32oih4IGfr19H81L-pNr-7" target="32oih4IGfr19H81L-pNr-11">
          <mxGeometry relative="1" as="geometry" />
        </mxCell>
        <mxCell id="32oih4IGfr19H81L-pNr-7" value="stringUserArray[i] &amp;lt; &lt;br&gt;stringUserArray.length" style="rhombus;whiteSpace=wrap;html=1;" vertex="1" parent="1">
          <mxGeometry x="270" y="210" width="240" height="80" as="geometry" />
        </mxCell>
        <mxCell id="32oih4IGfr19H81L-pNr-14" value="Yes" style="edgeStyle=orthogonalEdgeStyle;rounded=0;orthogonalLoop=1;jettySize=auto;html=1;" edge="1" parent="1" source="32oih4IGfr19H81L-pNr-9" target="32oih4IGfr19H81L-pNr-13">
          <mxGeometry relative="1" as="geometry" />
        </mxCell>
        <mxCell id="32oih4IGfr19H81L-pNr-16" value="No" style="edgeStyle=orthogonalEdgeStyle;rounded=0;orthogonalLoop=1;jettySize=auto;html=1;" edge="1" parent="1" source="32oih4IGfr19H81L-pNr-9" target="32oih4IGfr19H81L-pNr-15">
          <mxGeometry relative="1" as="geometry" />
        </mxCell>
        <mxCell id="32oih4IGfr19H81L-pNr-9" value="stringUserArray[i].length &amp;lt; 3" style="rhombus;whiteSpace=wrap;html=1;" vertex="1" parent="1">
          <mxGeometry x="285" y="320" width="210" height="50" as="geometry" />
        </mxCell>
        <mxCell id="32oih4IGfr19H81L-pNr-20" value="" style="edgeStyle=orthogonalEdgeStyle;rounded=0;orthogonalLoop=1;jettySize=auto;html=1;" edge="1" parent="1" source="32oih4IGfr19H81L-pNr-11" target="32oih4IGfr19H81L-pNr-19">
          <mxGeometry relative="1" as="geometry" />
        </mxCell>
        <mxCell id="32oih4IGfr19H81L-pNr-11" value="newStringUserArray&lt;br&gt;i = 0" style="whiteSpace=wrap;html=1;" vertex="1" parent="1">
          <mxGeometry x="550" y="230" width="120" height="40" as="geometry" />
        </mxCell>
        <mxCell id="32oih4IGfr19H81L-pNr-17" style="edgeStyle=orthogonalEdgeStyle;rounded=0;orthogonalLoop=1;jettySize=auto;html=1;entryX=0.5;entryY=1;entryDx=0;entryDy=0;" edge="1" parent="1" source="32oih4IGfr19H81L-pNr-13" target="32oih4IGfr19H81L-pNr-15">
          <mxGeometry relative="1" as="geometry" />
        </mxCell>
        <mxCell id="32oih4IGfr19H81L-pNr-13" value="newMassLength = newMassLength + 1" style="whiteSpace=wrap;html=1;" vertex="1" parent="1">
          <mxGeometry x="270" y="410" width="240" height="40" as="geometry" />
        </mxCell>
        <mxCell id="32oih4IGfr19H81L-pNr-18" style="edgeStyle=orthogonalEdgeStyle;rounded=0;orthogonalLoop=1;jettySize=auto;html=1;exitX=0.5;exitY=0;exitDx=0;exitDy=0;entryX=0;entryY=0.5;entryDx=0;entryDy=0;" edge="1" parent="1" source="32oih4IGfr19H81L-pNr-15" target="32oih4IGfr19H81L-pNr-7">
          <mxGeometry relative="1" as="geometry" />
        </mxCell>
        <mxCell id="32oih4IGfr19H81L-pNr-15" value="i = i + 1" style="whiteSpace=wrap;html=1;" vertex="1" parent="1">
          <mxGeometry x="190" y="330" width="60" height="30" as="geometry" />
        </mxCell>
        <mxCell id="32oih4IGfr19H81L-pNr-22" value="Yes" style="edgeStyle=orthogonalEdgeStyle;rounded=0;orthogonalLoop=1;jettySize=auto;html=1;" edge="1" parent="1" source="32oih4IGfr19H81L-pNr-19" target="32oih4IGfr19H81L-pNr-21">
          <mxGeometry relative="1" as="geometry" />
        </mxCell>
        <mxCell id="32oih4IGfr19H81L-pNr-36" value="No" style="edgeStyle=orthogonalEdgeStyle;rounded=0;orthogonalLoop=1;jettySize=auto;html=1;entryX=0.5;entryY=0;entryDx=0;entryDy=0;" edge="1" parent="1" source="32oih4IGfr19H81L-pNr-19" target="32oih4IGfr19H81L-pNr-32">
          <mxGeometry relative="1" as="geometry" />
        </mxCell>
        <mxCell id="32oih4IGfr19H81L-pNr-19" value="stringUserArray[i] &amp;lt;&lt;br style=&quot;border-color: var(--border-color);&quot;&gt;stringUserArray.length" style="rhombus;whiteSpace=wrap;html=1;" vertex="1" parent="1">
          <mxGeometry x="730" y="210" width="210" height="80" as="geometry" />
        </mxCell>
        <mxCell id="32oih4IGfr19H81L-pNr-24" value="Yes" style="edgeStyle=orthogonalEdgeStyle;rounded=0;orthogonalLoop=1;jettySize=auto;html=1;" edge="1" parent="1" source="32oih4IGfr19H81L-pNr-21" target="32oih4IGfr19H81L-pNr-23">
          <mxGeometry relative="1" as="geometry" />
        </mxCell>
        <mxCell id="32oih4IGfr19H81L-pNr-26" value="No" style="edgeStyle=orthogonalEdgeStyle;rounded=0;orthogonalLoop=1;jettySize=auto;html=1;" edge="1" parent="1" source="32oih4IGfr19H81L-pNr-21" target="32oih4IGfr19H81L-pNr-25">
          <mxGeometry relative="1" as="geometry" />
        </mxCell>
        <mxCell id="32oih4IGfr19H81L-pNr-21" value="stringUserArray[i].length &amp;lt; 3" style="rhombus;whiteSpace=wrap;html=1;" vertex="1" parent="1">
          <mxGeometry x="880" y="330" width="180" height="60" as="geometry" />
        </mxCell>
        <mxCell id="32oih4IGfr19H81L-pNr-29" style="edgeStyle=orthogonalEdgeStyle;rounded=0;orthogonalLoop=1;jettySize=auto;html=1;entryX=0.5;entryY=1;entryDx=0;entryDy=0;" edge="1" parent="1" source="32oih4IGfr19H81L-pNr-23" target="32oih4IGfr19H81L-pNr-27">
          <mxGeometry relative="1" as="geometry">
            <Array as="points">
              <mxPoint x="690" y="460" />
            </Array>
          </mxGeometry>
        </mxCell>
        <mxCell id="32oih4IGfr19H81L-pNr-23" value="newStringUserArray[i] = stringUserArray[i - discounter]" style="whiteSpace=wrap;html=1;" vertex="1" parent="1">
          <mxGeometry x="730" y="440" width="220" height="40" as="geometry" />
        </mxCell>
        <mxCell id="32oih4IGfr19H81L-pNr-28" value="" style="edgeStyle=orthogonalEdgeStyle;rounded=0;orthogonalLoop=1;jettySize=auto;html=1;" edge="1" parent="1" source="32oih4IGfr19H81L-pNr-25" target="32oih4IGfr19H81L-pNr-27">
          <mxGeometry relative="1" as="geometry" />
        </mxCell>
        <mxCell id="32oih4IGfr19H81L-pNr-25" value="discounter = discounter +1" style="whiteSpace=wrap;html=1;" vertex="1" parent="1">
          <mxGeometry x="750" y="340" width="90" height="40" as="geometry" />
        </mxCell>
        <mxCell id="32oih4IGfr19H81L-pNr-31" style="edgeStyle=orthogonalEdgeStyle;rounded=0;orthogonalLoop=1;jettySize=auto;html=1;exitX=0.5;exitY=0;exitDx=0;exitDy=0;entryX=0;entryY=0.5;entryDx=0;entryDy=0;" edge="1" parent="1" source="32oih4IGfr19H81L-pNr-27" target="32oih4IGfr19H81L-pNr-19">
          <mxGeometry relative="1" as="geometry" />
        </mxCell>
        <mxCell id="32oih4IGfr19H81L-pNr-27" value="i = i + 1" style="whiteSpace=wrap;html=1;" vertex="1" parent="1">
          <mxGeometry x="650" y="350" width="80" height="20" as="geometry" />
        </mxCell>
        <mxCell id="32oih4IGfr19H81L-pNr-35" value="" style="edgeStyle=orthogonalEdgeStyle;rounded=0;orthogonalLoop=1;jettySize=auto;html=1;" edge="1" parent="1" source="32oih4IGfr19H81L-pNr-32" target="32oih4IGfr19H81L-pNr-34">
          <mxGeometry relative="1" as="geometry" />
        </mxCell>
        <mxCell id="32oih4IGfr19H81L-pNr-32" value="newStringUserArray" style="shape=document;whiteSpace=wrap;html=1;boundedLbl=1;" vertex="1" parent="1">
          <mxGeometry x="1050" y="420" width="120" height="50" as="geometry" />
        </mxCell>
        <mxCell id="32oih4IGfr19H81L-pNr-34" value="End" style="ellipse;whiteSpace=wrap;html=1;" vertex="1" parent="1">
          <mxGeometry x="1052.5" y="500" width="115" height="45" as="geometry" />
        </mxCell>
      </root>
    </mxGraphModel>
  </diagram>
</mxfile>
